<?xml version="1.0" encoding="UTF-8"?> <svg xmlns="http://www.w3.org/2000/svg" xmlns:xlink="http://www.w3.org/1999/xlink" viewBox="0 0 1050 774"><defs><style> .cls-1, .cls-9 { fill: #fff; } .cls-1 { stroke: #707070; } .cls-2 { clip-path: url(#clip-path); } .cls-3 { fill: #372652; } .cls-4 { fill: none; opacity: 0.5; } .cls-5 { fill: url(#linear-gradient); } .cls-6 { fill: #57585b; } .cls-7 { opacity: 0.9; } .cls-8 { fill: #d32d80; } .cls-10 { fill: #81ead6; } .cls-11, .cls-18 { fill: #414046; } .cls-11, .cls-17 { opacity: 0.1; } .cls-12 { fill: #2f2e35; } .cls-13 { fill: #3c4251; } .cls-14 { fill: #ffcfa9; } .cls-15 { fill: #dd523c; } .cls-16 { fill: #efc1a0; } .cls-19 { fill: #56b7a4; } .cls-20 { fill: #775137; } .cls-21 { fill: #6f706f; } .cls-22 { fill: #23130b; } .cls-23 { fill: #b21b87; } .cls-24 { fill: #fcf6e3; } .cls-25 { fill: #ede2c3; } .cls-26 { opacity: 0.46; } .cls-27 { fill: #20576c; } .cls-28 { fill: #2d9bb5; } .cls-29 { fill: #261613; } </style><clipPath id="clip-path"><rect id="Rectangle_1628" data-name="Rectangle 1628" class="cls-1" width="1050" height="774" transform="translate(613 2179)"></rect></clipPath><linearGradient id="linear-gradient" y1="0.5" x2="1" y2="0.5" gradientUnits="objectBoundingBox"><stop offset="0" stop-color="#b82669"></stop><stop offset="1" stop-color="#22358c"></stop></linearGradient></defs><g id="The_Platform__illustration_2" data-name="The Platform _illustration_2" class="cls-2" transform="translate(-613 -2179)"><g id="Group_11116" data-name="Group 11116" transform="translate(620.025 2199.91)"><path id="Path_12294" data-name="Path 12294" class="cls-3" d="M1004.27,554.425l-210-121.258h0l-51.344-29.624h0L487.172,255.874c-15.487-8.932-40.676-8.932-56.163,0L19.04,493.7c-15.487,8.932-15.487,23.455,0,32.451L307.181,692.519a.063.063,0,0,0-.064.064L403.7,748.361a.063.063,0,0,0,.064-.064l132.375,76.4c15.487,8.932,40.676,8.932,56.163,0L1004.27,586.876C1019.757,577.88,1019.757,563.357,1004.27,554.425Z" transform="translate(-2.663 -89.029)"></path><path id="Path_12295" data-name="Path 12295" class="cls-4" d="M1008.592,536.862,799.812,415.347h0l-51.087-29.688h0L494.385,237.6c-15.422-9-40.612-9.382-56.356-.835L21.369,462.578c-15.679,8.482-15.936,22.684-.514,31.616L307.389,660.947a.063.063,0,0,0-.064.064l96.068,55.906a.063.063,0,0,0,.064-.064l131.6,76.6c15.422,9,40.612,9.382,56.356.835l413.64-233.07C1020.737,552.734,1024.014,545.858,1008.592,536.862Z" transform="translate(-3.385 -82.39)"></path><path id="Path_12296" data-name="Path 12296" class="cls-5" d="M1000,496.34,790.578,375.4c-.385-.257-.771-.45-1.157-.707L463.175,186.351c-12.274-7.069-32.194-7.069-44.468,0L216.161,303.3h0l-40.676,23.455h0l-166.3,96c-12.274,7.069-12.274,18.571,0,25.7L546.006,758.456c12.274,7.069,32.194,7.069,44.468,0l104.808-60.533h.064l76.533-44.146-.064-.064L1000,521.98C1012.275,514.911,1012.275,503.409,1000,496.34Z" transform="translate(0 -64.681)"></path><g id="Group_11054" data-name="Group 11054" transform="translate(183.003 0.075)"><g id="Group_11044" data-name="Group 11044" transform="translate(0 221.648)"><g id="Group_11030" data-name="Group 11030"><g id="Group_11025" data-name="Group 11025"><path id="Path_12297" data-name="Path 12297" class="cls-6" d="M477.978,849.992h-.064l-2.185-1.285h0L437.88,826.859h0l-2.185-1.285-39.263-22.62-2.185-1.285-39.263-22.684h0L352.8,777.7Z" transform="translate(-309.103 -499.648)"></path><path id="Path_12298" data-name="Path 12298" class="cls-6" d="M973.3,345l1.092,1.928Z" transform="translate(-530.872 -345)"></path><path id="Path_12299" data-name="Path 12299" class="cls-6" d="M286.471,743.464,284.8,742.5Z" transform="translate(-284.8 -487.068)"></path><path id="Path_12300" data-name="Path 12300" class="cls-6" d="M672.778,966.521l-.578-.321Z" transform="translate(-423.258 -567.019)"></path><path id="Path_12301" data-name="Path 12301" class="cls-6" d="M474.478,851.992l-2.185-1.285L351.485,780.985,349.3,779.7Z" transform="translate(-307.852 -500.363)"></path></g><g id="Group_11026" data-name="Group 11026" transform="translate(43.118 23.905)"><path id="Path_12302" data-name="Path 12302" class="cls-6" d="M793.75,384.128l-.514.321L755.387,406.3l-2.249,1.285-37.849,21.848-2.249,1.285-37.849,21.848-2.185,1.285L635.157,475.7l-2.185,1.285-37.913,21.848-2.185,1.285-37.913,21.848-2.185,1.285L514.927,545.1l-2.185,1.285-37.849,21.848-2.249,1.285L434.8,591.366l-2.185,1.285L394.761,614.5l-2.249,1.285-37.849,21.848-1.671.964-1.092-1.928.514-.321h.064L390.327,614.5l2.185-1.285,37.913-21.848,2.121-1.285,37.913-21.848,2.185-1.285L510.493,545.1l2.249-1.285,37.849-21.848,2.185-1.285h0l37.849-21.848,2.249-1.285L630.723,475.7l2.185-1.285,37.913-21.848,2.185-1.285,37.849-21.848,2.185-1.285h0L750.953,406.3l2.185-1.285,37.849-21.848,1.671-.964Z" transform="translate(-351.9 -382.2)"></path></g><g id="Group_11027" data-name="Group 11027" transform="translate(84.545 47.863)"><rect id="Rectangle_1621" data-name="Rectangle 1621" class="cls-6" width="508.937" height="2.185" transform="translate(0 254.418) rotate(-29.993)"></rect></g><g id="Group_11028" data-name="Group 11028" transform="translate(126.016 71.799)"><rect id="Rectangle_1622" data-name="Rectangle 1622" class="cls-6" width="508.937" height="2.185" transform="translate(0 254.418) rotate(-29.993)"></rect></g><g id="Group_11029" data-name="Group 11029" transform="translate(166.111 94.912)"><path id="Path_12303" data-name="Path 12303" class="cls-6" d="M985.15,494.628l-.578.257-23.2,13.43-.385.193-.193.129-1.992,1.157-12.081,7-2.185,1.285-21.591,12.466-1.992,1.093-.257.128-1.928,1.157-12.145,7-2.185,1.285-21.591,12.4-1.992,1.221-.193.064-1.992,1.157h0l-12.081,7-2.185,1.285L842.75,576.816l-1.928,1.157-.257.064-1.992,1.157-12.081,7-2.185,1.285-21.591,12.466-1.992,1.157-.193.064-1.992,1.157-12.081,7-2.249,1.285-21.591,12.466-1.928,1.092-14.33,8.289-2.185,1.285-23.583,13.559-.257.193-1.928,1.092h0l-12.081,7h-.064l-2.185,1.285h0l-23.519,13.559-.257.128-1.992,1.157-12.081,7-2.185,1.285h0L640.461,693.64l-2.185,1.221h0l-12.081,7-2.185,1.285-23.648,13.623L586.1,725h0l-2.185,1.285L562.321,738.75l-16.258,9.382-1.671.964h0l-1.092-1.928.514-.321,13.752-7.9L581.727,725l2.185-1.285h0l5.012-2.892,7.069-4.048,2.185-1.285,23.583-13.623,2.185-1.285h0l12.145-7,2.185-1.221,23.519-13.623h.064l2.185-1.285,12.081-7L701.893,655.6h0l2.185-1.285h.064l12.017-7,4.177-2.378,21.655-12.466,2.185-1.285,12.081-7,2.185-1.221,23.583-13.623,2.185-1.285,14.33-8.225L822.123,586.2h0l2.185-1.285,12.081-7,25.768-14.844h0l2.249-1.285h0l12.081-7,4.177-2.378,21.591-12.466,2.185-1.285,12.081-7,2.185-1.221L942.289,516.8l2.249-1.285,15.679-9.061,22.17-12.788,1.671-.964,1.028,1.863Z" transform="translate(-543.3 -492.7)"></path></g></g><g id="Group_11031" data-name="Group 11031" transform="translate(81.546 254.918)"><path id="Path_12304" data-name="Path 12304" class="cls-6" d="M539.063,813.992l-2.185,1.285-2.185-1.285L496.78,792.144l-2.185-1.285-39.263-22.684-2.185-1.285L413.885,744.27l-2.185-1.285,2.185-1.285,2.249,1.285,39.2,22.684,2.249,1.221,39.2,22.684,2.249,1.285,37.849,21.848Z" transform="translate(-411.7 -741.7)"></path></g><g id="Group_11032" data-name="Group 11032" transform="translate(41.448 278.052)"><path id="Path_12305" data-name="Path 12305" class="cls-6" d="M476.663,849.992h.064l-1.671.964h0l-.578.321-2.185-1.285L351.485,780.27l-2.185-1.285,1.671-.964.321-.193.193-.128h0l2.249,1.285h0L393,801.669l2.185,1.285,39.263,22.62,2.185,1.285h0l37.849,21.848h0Z" transform="translate(-349.3 -777.7)"></path></g><g id="Group_11033" data-name="Group 11033" transform="translate(81.546 254.918)"><path id="Path_12306" data-name="Path 12306" class="cls-6" d="M539.063,813.992l-2.185,1.285-2.185-1.285L496.78,792.144l-2.185-1.285-39.263-22.684-2.185-1.285L413.885,744.27l-2.185-1.285,2.185-1.285,2.249,1.285,39.2,22.684,2.249,1.221,39.2,22.684,2.249,1.285,37.849,21.848Z" transform="translate(-411.7 -741.7)"></path></g><g id="Group_11034" data-name="Group 11034" transform="translate(121.644 231.785)"><path id="Path_12307" data-name="Path 12307" class="cls-6" d="M601.463,777.992l-2.185,1.285-2.249-1.285L559.18,756.144,557,754.859l-39.263-22.684-2.249-1.221-39.2-22.684-2.185-1.285,2.121-1.285,2.249,1.285,39.263,22.684,2.185,1.285,39.263,22.619,2.185,1.285,37.849,21.848Z" transform="translate(-474.1 -705.7)"></path></g><g id="Group_11035" data-name="Group 11035" transform="translate(161.677 208.651)"><path id="Path_12308" data-name="Path 12308" class="cls-6" d="M663.763,741.992l-2.185,1.285-2.185-1.285-37.849-21.848h-.064l-2.185-1.285-39.263-22.684-2.185-1.221-39.263-22.684-2.185-1.285,2.185-1.285,2.249,1.285,39.2,22.684,2.249,1.285,39.2,22.619,2.249,1.285,37.849,21.848Z" transform="translate(-536.4 -669.7)"></path></g><g id="Group_11036" data-name="Group 11036" transform="translate(201.711 185.518)"><path id="Path_12309" data-name="Path 12309" class="cls-6" d="M726.127,705.992l-2.249,1.285-2.185-1.285-37.849-21.848-2.249-1.285-39.2-22.684-2.185-1.285L600.949,636.27l-2.249-1.285,2.249-1.285,2.185,1.285L642.4,657.669l2.185,1.285,39.263,22.619,2.185,1.285,37.913,21.848Z" transform="translate(-598.7 -633.7)"></path></g><g id="Group_11037" data-name="Group 11037" transform="translate(241.809 162.384)"><path id="Path_12310" data-name="Path 12310" class="cls-6" d="M788.463,669.992l-2.185,1.285-2.185-1.285L746.18,648.144l-2.185-1.285-39.263-22.684-2.185-1.285L663.285,600.27l-2.185-1.285,2.185-1.285h0l2.185,1.285,39.263,22.684,2.249,1.285,39.2,22.62,2.185,1.285h.064l37.849,21.848Z" transform="translate(-661.1 -597.7)"></path></g><g id="Group_11038" data-name="Group 11038" transform="translate(281.843 139.251)"><path id="Path_12311" data-name="Path 12311" class="cls-6" d="M850.827,633.992l-2.249,1.285-2.185-1.285-37.849-21.848-2.185-1.285h0L767.1,588.175l-2.185-1.285-39.263-22.619-2.249-1.285,2.249-1.285,2.185,1.285L767.1,585.669h0l2.185,1.221,39.263,22.684,2.185,1.285,37.849,21.848Z" transform="translate(-723.4 -561.7)"></path></g><g id="Group_11039" data-name="Group 11039" transform="translate(321.941 116.117)"><path id="Path_12312" data-name="Path 12312" class="cls-6" d="M913.163,597.992l-2.185,1.285-2.185-1.285-37.849-21.848h-.064l-2.185-1.285-39.2-22.684-2.249-1.221-39.2-22.684-2.249-1.285,2.185-1.285,2.249,1.285L829.5,549.669l2.185,1.285,39.2,22.62,2.249,1.285,37.849,21.848Z" transform="translate(-785.8 -525.7)"></path></g><g id="Group_11040" data-name="Group 11040" transform="translate(362.039 92.984)"><path id="Path_12313" data-name="Path 12313" class="cls-6" d="M975.563,561.992l-2.185,1.285-2.249-1.285L933.28,540.144l-2.185-1.285-39.263-22.684-2.185-1.285-39.263-22.62-2.185-1.285,2.185-1.285,2.185,1.285,39.263,22.684,2.185,1.285,39.263,22.62,2.185,1.285,37.913,21.848Z" transform="translate(-848.2 -489.7)"></path></g><g id="Group_11041" data-name="Group 11041" transform="translate(402.073 69.85)"><path id="Path_12314" data-name="Path 12314" class="cls-6" d="M1037.863,525.992l-2.185,1.285-2.185-1.285-37.849-21.848-2.249-1.285-39.2-22.684-2.249-1.285L912.685,456.27l-2.185-1.285,2.185-1.285h0l2.249,1.285L954.2,477.669l2.185,1.221,39.263,22.684,2.185,1.285h0l37.849,21.848Z" transform="translate(-910.5 -453.7)"></path></g><g id="Group_11042" data-name="Group 11042" transform="translate(442.171 46.717)"><path id="Path_12315" data-name="Path 12315" class="cls-6" d="M1100.263,489.992l-2.185,1.285-2.249-1.285-37.849-21.848-2.185-1.285h0l-39.263-22.684-2.185-1.285L975.085,420.27l-2.185-1.285,2.185-1.285,2.249,1.285,39.2,22.619,2.249,1.285,39.2,22.684,2.249,1.285,37.849,21.848Z" transform="translate(-972.9 -417.7)"></path></g><g id="Group_11043" data-name="Group 11043" transform="translate(442.428)"><path id="Path_12316" data-name="Path 12316" class="cls-6" d="M1140.44,440.811l-1.671.964.064.064-.578.257h-.064l-2.121-1.221-.064-.064-37.785-21.848-2.249-1.221-39.2-22.684-2.185-1.285-39.263-22.619-2.249-1.285-39.776-23,.578-.964.514-.9,163.8,94.526Z" transform="translate(-973.3 -345)"></path></g></g><g id="Group_11050" data-name="Group 11050" class="cls-7" transform="translate(84.502)"><g id="Group_11045" data-name="Group 11045" transform="translate(0 364.545)"><path id="Path_12317" data-name="Path 12317" class="cls-8" d="M458.2,704.524l-40.1,23.134V592.133L458.2,569Z" transform="translate(-416.943 -567.956)"></path><path id="Path_12318" data-name="Path 12318" class="cls-9" d="M417.457,728.169a1.874,1.874,0,0,1-.578-.129,1.194,1.194,0,0,1-.578-.964V591.617a1.06,1.06,0,0,1,.578-.964l40.1-23.133a1.1,1.1,0,0,1,1.092,0,1.194,1.194,0,0,1,.578.964V703.943a1.06,1.06,0,0,1-.578.964l-40.1,23.133A1.21,1.21,0,0,1,417.457,728.169ZM418.549,592.2V725.149L456.4,703.3V570.347Z" transform="translate(-416.3 -567.375)"></path></g><g id="Group_11046" data-name="Group 11046" transform="translate(40.098 303.113)"><path id="Path_12319" data-name="Path 12319" class="cls-8" d="M520.534,647.223,480.5,670.356V496.534L520.534,473.4Z" transform="translate(-479.343 -472.356)"></path><path id="Path_12320" data-name="Path 12320" class="cls-9" d="M479.857,670.868a1.874,1.874,0,0,1-.578-.129,1.194,1.194,0,0,1-.578-.964V496.017a1.06,1.06,0,0,1,.578-.964l40.1-23.133a1.1,1.1,0,0,1,1.092,0,1.194,1.194,0,0,1,.578.964V646.642a1.06,1.06,0,0,1-.578.964l-40.1,23.133A1.209,1.209,0,0,1,479.857,670.868ZM480.949,496.6V667.848L518.8,646V474.747Z" transform="translate(-478.7 -471.775)"></path></g><path id="Path_12321" data-name="Path 12321" class="cls-8" d="M582.9,522.515l-40.1,23.133V212.334L582.9,189.2Z" transform="translate(-461.511 -67.669)"></path><path id="Path_12322" data-name="Path 12322" class="cls-9" d="M542.157,546.125a1.878,1.878,0,0,1-.578-.128,1.194,1.194,0,0,1-.578-.964V211.717a1.06,1.06,0,0,1,.578-.964l40.1-23.134a1.1,1.1,0,0,1,1.092,0,1.194,1.194,0,0,1,.578.964V521.9a1.06,1.06,0,0,1-.578.964L542.671,546A1.21,1.21,0,0,1,542.157,546.125Zm1.092-333.765V543.1L581.1,521.256V190.511Z" transform="translate(-460.868 -67.052)"></path><path id="Path_12323" data-name="Path 12323" class="cls-8" d="M645.234,432.369,605.2,455.5V24.834L645.234,1.7Z" transform="translate(-483.813 -0.656)"></path><path id="Path_12324" data-name="Path 12324" class="cls-9" d="M604.557,456.014a1.876,1.876,0,0,1-.578-.129,1.194,1.194,0,0,1-.578-.964V24.317a1.06,1.06,0,0,1,.578-.964L644.076.22a1.1,1.1,0,0,1,1.092,0,1.2,1.2,0,0,1,.578.964v430.6a1.06,1.06,0,0,1-.578.964l-40.1,23.134A1.21,1.21,0,0,1,604.557,456.014ZM605.649,24.9v428.1L643.5,431.145V3.047Z" transform="translate(-483.17 -0.075)"></path><path id="Path_12325" data-name="Path 12325" class="cls-8" d="M707.6,514.526l-40.1,23.133V319.433L707.6,296.3Z" transform="translate(-506.08 -105.947)"></path><path id="Path_12326" data-name="Path 12326" class="cls-9" d="M666.857,538.171a1.874,1.874,0,0,1-.578-.129,1.194,1.194,0,0,1-.578-.964V318.917a1.06,1.06,0,0,1,.578-.964l40.1-23.133a1.1,1.1,0,0,1,1.092,0,1.194,1.194,0,0,1,.578.964V513.945a1.06,1.06,0,0,1-.578.964l-40.1,23.133A1.21,1.21,0,0,1,666.857,538.171ZM668.013,319.5V535.151L705.862,513.3V297.647Z" transform="translate(-505.436 -105.366)"></path><path id="Path_12327" data-name="Path 12327" class="cls-8" d="M770,521.879l-40.1,23.133V404.733L769.934,381.6Z" transform="translate(-528.381 -136.433)"></path><path id="Path_12328" data-name="Path 12328" class="cls-9" d="M729.257,545.488a1.877,1.877,0,0,1-.578-.128,1.2,1.2,0,0,1-.578-.964V404.117a1.06,1.06,0,0,1,.578-.964l40.1-23.133a1.1,1.1,0,0,1,1.092,0,1.194,1.194,0,0,1,.578.964V521.263a1.06,1.06,0,0,1-.578.964l-40.1,23.134A1.211,1.211,0,0,1,729.257,545.488Zm1.092-140.729V542.468L768.2,520.62V382.911Z" transform="translate(-527.738 -135.817)"></path><path id="Path_12329" data-name="Path 12329" class="cls-8" d="M832.3,459.5l-40.034,23.133-.064-187.7L832.3,271.8Z" transform="translate(-550.648 -97.19)"></path><path id="Path_12330" data-name="Path 12330" class="cls-9" d="M791.657,483.148a1.875,1.875,0,0,1-.578-.129,1.194,1.194,0,0,1-.578-.964V294.417a1.06,1.06,0,0,1,.578-.964l40.1-23.133a1.1,1.1,0,0,1,1.092,0,1.194,1.194,0,0,1,.578.964V458.922a1.06,1.06,0,0,1-.578.964l-40.1,23.133A1.983,1.983,0,0,1,791.657,483.148ZM792.749,295V480.128L830.6,458.279V273.147Z" transform="translate(-550.04 -96.609)"></path><path id="Path_12331" data-name="Path 12331" class="cls-8" d="M894.7,367.355l-40.1,23.133V101.834L894.7,78.7Z" transform="translate(-572.95 -28.176)"></path><path id="Path_12332" data-name="Path 12332" class="cls-9" d="M853.957,390.964a1.875,1.875,0,0,1-.578-.129,1.194,1.194,0,0,1-.578-.964V101.217a1.06,1.06,0,0,1,.578-.964l40.1-23.133a1.1,1.1,0,0,1,1.093,0,1.194,1.194,0,0,1,.578.964V366.738a1.06,1.06,0,0,1-.578.964l-40.1,23.134A1.21,1.21,0,0,1,853.957,390.964Zm1.092-289.1V387.944L892.9,366.1V80.011Z" transform="translate(-572.306 -27.559)"></path><path id="Path_12333" data-name="Path 12333" class="cls-8" d="M957.034,399.69,917,422.824V257.034L957.034,233.9Z" transform="translate(-595.252 -83.645)"></path><path id="Path_12334" data-name="Path 12334" class="cls-9" d="M916.357,423.3a1.877,1.877,0,0,1-.578-.129,1.2,1.2,0,0,1-.578-.964V256.417a1.06,1.06,0,0,1,.578-.964l40.1-23.133a1.1,1.1,0,0,1,1.092,0,1.194,1.194,0,0,1,.578.964v165.79a1.06,1.06,0,0,1-.578.964l-40.1,23.134A1.21,1.21,0,0,1,916.357,423.3Zm1.092-166.24v163.22L955.3,398.431V235.211Z" transform="translate(-594.608 -83.028)"></path><path id="Path_12335" data-name="Path 12335" class="cls-8" d="M1019.4,391.174l-40.1,23.133V297.934l40.1-23.134Z" transform="translate(-617.518 -98.262)"></path><path id="Path_12336" data-name="Path 12336" class="cls-9" d="M978.657,414.82a1.878,1.878,0,0,1-.578-.128,1.194,1.194,0,0,1-.578-.964V297.417a1.06,1.06,0,0,1,.578-.964l40.1-23.133a1.1,1.1,0,0,1,1.092,0,1.194,1.194,0,0,1,.578.964v116.31a1.06,1.06,0,0,1-.578.964l-40.1,23.133A1.209,1.209,0,0,1,978.657,414.82ZM979.749,298V411.8l37.849-21.848v-113.8Z" transform="translate(-616.874 -97.682)"></path><path id="Path_12337" data-name="Path 12337" class="cls-8" d="M1081.734,371.972,1041.7,395.106V308.933l40.034-23.133Z" transform="translate(-639.82 -102.194)"></path><path id="Path_12338" data-name="Path 12338" class="cls-9" d="M1041.057,395.617a1.875,1.875,0,0,1-.579-.129,1.2,1.2,0,0,1-.578-.964V308.417a1.06,1.06,0,0,1,.578-.964l40.1-23.134a1.1,1.1,0,0,1,1.092,0,1.194,1.194,0,0,1,.578.964v86.108a1.06,1.06,0,0,1-.578.964l-40.1,23.134A1.208,1.208,0,0,1,1041.057,395.617ZM1042.149,309v83.6L1080,370.749v-83.6Z" transform="translate(-639.176 -101.613)"></path><g id="Group_11047" data-name="Group 11047" transform="translate(0 376.112)"><path id="Path_12339" data-name="Path 12339" class="cls-8" d="M438.149,722.524,418.1,734.091V598.567L438.149,587Z" transform="translate(-416.943 -585.956)"></path><path id="Path_12340" data-name="Path 12340" class="cls-9" d="M417.457,734.6a1.874,1.874,0,0,1-.578-.129,1.194,1.194,0,0,1-.578-.964V598.05a1.06,1.06,0,0,1,.578-.964l20.049-11.567a1.1,1.1,0,0,1,1.092,0,1.194,1.194,0,0,1,.578.964V721.943a1.06,1.06,0,0,1-.578.964l-20.049,11.567A1.21,1.21,0,0,1,417.457,734.6Zm1.092-135.974V731.582l17.8-10.281V588.347Z" transform="translate(-416.3 -585.375)"></path></g><g id="Group_11048" data-name="Group 11048" transform="translate(40.098 314.808)"><path id="Path_12341" data-name="Path 12341" class="cls-8" d="M500.549,665.33,480.5,676.9V503.267L500.549,491.7Z" transform="translate(-479.343 -490.591)"></path><path id="Path_12342" data-name="Path 12342" class="cls-9" d="M479.857,677.372a1.878,1.878,0,0,1-.578-.129,1.2,1.2,0,0,1-.578-.964V502.65a1.06,1.06,0,0,1,.578-.964l20.049-11.567a1.1,1.1,0,0,1,1.092,0,1.194,1.194,0,0,1,.578.964v173.63a1.06,1.06,0,0,1-.578.964l-20.049,11.567A1.211,1.211,0,0,1,479.857,677.372Zm1.092-174.144V674.288l17.8-10.281V492.947Z" transform="translate(-478.7 -489.975)"></path></g><g id="Group_11049" data-name="Group 11049" transform="translate(80.132 132.568)"><path id="Path_12343" data-name="Path 12343" class="cls-8" d="M562.849,540.773,542.8,552.339V219.667L562.849,208.1Z" transform="translate(-541.643 -206.992)"></path><path id="Path_12344" data-name="Path 12344" class="cls-9" d="M542.157,552.815a1.878,1.878,0,0,1-.578-.128,1.194,1.194,0,0,1-.578-.964V219.05a1.06,1.06,0,0,1,.578-.964l20.049-11.567a1.1,1.1,0,0,1,1.092,0,1.194,1.194,0,0,1,.578.964V540.156a1.06,1.06,0,0,1-.578.964l-20.049,11.567A1.21,1.21,0,0,1,542.157,552.815Zm1.092-333.122V549.8l17.8-10.282v-330.1Z" transform="translate(-541 -206.375)"></path></g><path id="Path_12345" data-name="Path 12345" class="cls-8" d="M687.549,532.526,667.5,544.093V325.867L687.549,314.3Z" transform="translate(-506.08 -112.38)"></path><path id="Path_12346" data-name="Path 12346" class="cls-9" d="M666.857,544.569a1.874,1.874,0,0,1-.578-.128,1.194,1.194,0,0,1-.578-.964V325.25a1.06,1.06,0,0,1,.578-.964l20.049-11.567a1.1,1.1,0,0,1,1.092,0,1.194,1.194,0,0,1,.578.964V531.909a1.06,1.06,0,0,1-.578.964L667.371,544.44A1.21,1.21,0,0,1,666.857,544.569Zm1.157-218.676V541.549l17.8-10.281V315.611Z" transform="translate(-505.436 -111.763)"></path><path id="Path_12347" data-name="Path 12347" class="cls-8" d="M749.949,540.022,729.9,551.589V411.567L749.949,400Z" transform="translate(-528.381 -143.009)"></path><path id="Path_12348" data-name="Path 12348" class="cls-9" d="M729.257,552.065a1.875,1.875,0,0,1-.578-.128,1.2,1.2,0,0,1-.578-.964V410.95a1.06,1.06,0,0,1,.578-.964l20.049-11.567a1.1,1.1,0,0,1,1.092,0,1.194,1.194,0,0,1,.578.964V539.405a1.06,1.06,0,0,1-.578.964l-20.049,11.567A1.21,1.21,0,0,1,729.257,552.065Zm1.092-140.472V549.044l17.8-10.282V401.311Z" transform="translate(-527.738 -142.393)"></path><path id="Path_12349" data-name="Path 12349" class="cls-8" d="M812.249,477.6l-19.985,11.567-.064-187.7L812.249,289.9Z" transform="translate(-550.648 -103.659)"></path><path id="Path_12350" data-name="Path 12350" class="cls-9" d="M791.657,489.645a1.876,1.876,0,0,1-.578-.128,1.194,1.194,0,0,1-.578-.964V300.85a1.06,1.06,0,0,1,.578-.964l20.049-11.567a1.1,1.1,0,0,1,1.092,0,1.194,1.194,0,0,1,.578.964v187.7a1.06,1.06,0,0,1-.578.964l-20.049,11.567A1.989,1.989,0,0,1,791.657,489.645Zm1.092-188.152V486.625l17.8-10.282V291.211Z" transform="translate(-550.04 -103.043)"></path><path id="Path_12351" data-name="Path 12351" class="cls-8" d="M936.985,417.847,917,429.414V263.367L936.985,251.8Z" transform="translate(-595.252 -90.042)"></path><path id="Path_12352" data-name="Path 12352" class="cls-9" d="M916.357,429.854a1.876,1.876,0,0,1-.578-.129,1.2,1.2,0,0,1-.578-.964V262.65a1.06,1.06,0,0,1,.578-.964l20.049-11.567a1.1,1.1,0,0,1,1.092,0,1.194,1.194,0,0,1,.578.964V417.195a1.06,1.06,0,0,1-.578.964l-20.049,11.567A.692.692,0,0,1,916.357,429.854Zm1.092-166.561V426.834l17.8-10.281V253.011Z" transform="translate(-594.608 -89.39)"></path><path id="Path_12353" data-name="Path 12353" class="cls-8" d="M999.349,409.3,979.3,420.87v-116.5L999.349,292.8Z" transform="translate(-617.518 -104.696)"></path><path id="Path_12354" data-name="Path 12354" class="cls-9" d="M978.657,421.381a1.878,1.878,0,0,1-.578-.128,1.194,1.194,0,0,1-.578-.964V303.85a1.06,1.06,0,0,1,.578-.964l20.049-11.567a1.1,1.1,0,0,1,1.092,0,1.2,1.2,0,0,1,.578.964V408.722a1.06,1.06,0,0,1-.578.964l-20.049,11.567A1.208,1.208,0,0,1,978.657,421.381Zm1.092-116.953V418.361l17.8-10.282V294.147Z" transform="translate(-616.874 -104.115)"></path><path id="Path_12355" data-name="Path 12355" class="cls-8" d="M1061.685,390.008,1041.7,401.575V315.467l19.985-11.567Z" transform="translate(-639.82 -108.663)"></path><path id="Path_12356" data-name="Path 12356" class="cls-9" d="M1041.057,402.051a1.876,1.876,0,0,1-.579-.129,1.2,1.2,0,0,1-.578-.964V314.85a1.061,1.061,0,0,1,.578-.964l20.049-11.567a1.1,1.1,0,0,1,1.092,0,1.194,1.194,0,0,1,.578.964v86.108a1.06,1.06,0,0,1-.578.964l-20.049,11.567A1.208,1.208,0,0,1,1041.057,402.051Zm1.093-86.558v83.538l17.8-10.282V305.211Z" transform="translate(-639.176 -108.046)"></path><path id="Path_12357" data-name="Path 12357" class="cls-8" d="M874.649,385.462,854.6,397.029V108.567L874.649,97Z" transform="translate(-572.95 -34.716)"></path><path id="Path_12358" data-name="Path 12358" class="cls-9" d="M853.957,397.5a1.876,1.876,0,0,1-.578-.129,1.194,1.194,0,0,1-.578-.964V107.95a1.06,1.06,0,0,1,.578-.964L873.427,95.42a1.1,1.1,0,0,1,1.092,0,1.194,1.194,0,0,1,.578.964V384.845a1.061,1.061,0,0,1-.578.964l-20.049,11.567A1.211,1.211,0,0,1,853.957,397.5Zm1.092-288.912V394.484l17.8-10.282V98.311Z" transform="translate(-572.306 -34.1)"></path><path id="Path_12359" data-name="Path 12359" class="cls-8" d="M625.249,450.3,605.2,461.864V31.067L625.249,19.5Z" transform="translate(-483.813 -7.018)"></path><path id="Path_12360" data-name="Path 12360" class="cls-9" d="M604.557,462.34a1.878,1.878,0,0,1-.578-.129,1.194,1.194,0,0,1-.578-.964V30.45a1.06,1.06,0,0,1,.578-.964L624.027,17.92a1.1,1.1,0,0,1,1.092,0,1.194,1.194,0,0,1,.578.964v430.8a1.06,1.06,0,0,1-.578.964l-20.049,11.567A.692.692,0,0,1,604.557,462.34Zm1.092-431.247V459.32l17.8-10.282V20.811Z" transform="translate(-483.17 -6.401)"></path></g><g id="Group_11053" data-name="Group 11053" class="cls-7" transform="translate(125.276 98.269)"><g id="Group_11051" data-name="Group 11051" transform="translate(1.122 0.869)"><path id="Path_12361" data-name="Path 12361" class="cls-10" d="M921.486,350.247,481.5,604.266c3.406-5.077,10.8-16,13.495-37.271,6.1-43.825,10.731-69.4,16.965-73,3.213-1.864,8.611,1.028,11.117,12.4,17.414,46.4,50.573-76.662,57.127-170.417,5.59-86.879,13.944-132.5,23.9-139.636,9.125-6.554,19.92,19.535,24.226,80.325.836,11.374,1.671,22.427,2.57,33.03,6.041,65.609,26.347,23.84,26.347,10.025,5.141-39.905,22.491-115.989,42.668-20.627,2.056,14.009,4.113,26.8,6.169,38.556,0-.064,0-.064.064-.129,14.458,118.559,38.234,35.728,44.275-39.905,8.289-156.537,33.672-195.607,45.239-62.975C810.574,381.541,921.486,350.247,921.486,350.247Z" transform="translate(-481.5 -154.353)"></path></g><g id="Group_11052" data-name="Group 11052"><path id="Path_12362" data-name="Path 12362" class="cls-10" d="M480.876,604.874a1.353,1.353,0,0,1-.835-.321,1.171,1.171,0,0,1-.129-1.349l.064-.064c3.47-5.141,10.667-15.808,13.238-36.757,6.426-45.946,10.86-69.979,17.543-73.77a4.859,4.859,0,0,1,2.506-.643c3.47,0,7.968,3.6,10.217,13.687,2.313,6.1,4.948,9.318,7.711,9.318,16.194,0,41.383-95.618,47.3-179.477,5.526-85.594,13.687-132.825,24.354-140.472a5.968,5.968,0,0,1,3.406-1.221c10.282,0,18.957,31.552,22.555,82.381.964,13.173,1.735,23.648,2.57,33.03,2.892,31.487,8.868,34.893,11.245,34.893,5.783,0,12.916-16.579,12.916-24.74v-.129c.9-6.94,9.061-67.6,23.84-67.6,7.454,0,14.33,15.358,21.013,46.91,2.249,14.908,4.241,27.375,6.1,38.17a.912.912,0,0,1,.129.386c6.426,52.821,14.009,58.541,17.029,58.541,9.318,0,20.82-45.046,25.125-98.382C752.5,227.541,761.562,153,775.892,153c10.924,0,17.093,44.4,20.306,81.481,10.41,102.044,67.473,117.467,100.5,117.467h0a93.106,93.106,0,0,0,23.9-2.956,1.026,1.026,0,0,1,1.285.514,1.131,1.131,0,0,1-.45,1.349L481.39,604.81A1.254,1.254,0,0,1,480.876,604.874Zm32.387-110.784a2.752,2.752,0,0,0-1.414.386c-6.426,3.727-11.631,37.656-16.45,72.164-2.185,17.222-7.326,27.7-11.117,33.865l430.09-248.235a109,109,0,0,1-17.736,1.478h0c-33.8,0-92.148-15.551-102.751-119.33-6.426-73.577-15.487-79.361-18.121-79.361-8.354,0-19.728,44.468-24.933,142.207-3.149,38.813-13.3,100.438-27.31,100.438-7.9,0-14.2-19.664-19.149-60.019a.387.387,0,0,1-.064-.257c-1.928-10.86-3.984-23.519-6.233-38.556-8.289-39.263-15.358-45.11-18.828-45.11-8.675,0-17.414,33.03-21.591,65.609-.064,8.675-7.2,26.861-15.1,26.861-6.683,0-11.181-12.4-13.43-36.885-.771-9.382-1.607-19.921-2.57-33.029-3.92-55.456-13.045-80.325-20.306-80.325a3.592,3.592,0,0,0-2.121.771c-6.94,4.948-16.579,33.094-23.39,138.8A705,705,0,0,1,561.2,455.92c-5.912,22.877-17.736,61.239-29.881,61.239-3.856,0-7.069-3.534-9.768-10.86a.225.225,0,0,0-.064-.129C519.432,497.3,515.769,494.091,513.263,494.091Z" transform="translate(-479.753 -153)"></path></g></g></g><g id="Group_11072" data-name="Group 11072" transform="translate(192.385 141.591)"><ellipse id="Ellipse_205" data-name="Ellipse 205" class="cls-11" cx="49.609" cy="28.66" rx="49.609" ry="28.66" transform="translate(0 211.865)"></ellipse><g id="Group_11062" data-name="Group 11062" transform="translate(21.875 110.399)"><g id="Group_11057" data-name="Group 11057" transform="translate(37.602 105.61)"><g id="Group_11056" data-name="Group 11056"><g id="Group_11055" data-name="Group 11055"><path id="Path_12363" data-name="Path 12363" class="cls-12" d="M402.138,556.739c2.313.45.964-.321,1.221,5.2,0,2.378,2.57,5.077,3.02,5.591,1.285,1.542,7.261,6.49,7.261,6.49s3.984,5.462-3.213,5.012-12.788-2.313-17.479-9.575c-1.157-2.506-1.349-8.418-.321-10.8C394.812,557.189,399.439,555.839,402.138,556.739Z" transform="translate(-391.957 -556.449)"></path></g></g></g><g id="Group_11060" data-name="Group 11060" transform="translate(2.845 120.719)"><g id="Group_11059" data-name="Group 11059"><g id="Group_11058" data-name="Group 11058"><path id="Path_12364" data-name="Path 12364" class="cls-12" d="M349.392,580.243c1.992.578,1.992,1.8,2.506,8.161.064.707,2.185,3.534,2.7,4.113,1.542,1.735,8.547,7.261,8.547,7.261s4.819,6.233-3.534,5.912-14.587-2.313-20.435-9.639c-1.349-2.827-1.8-10.6-.643-13.3C341.038,580.95,346.307,579.279,349.392,580.243Z" transform="translate(-337.869 -579.961)"></path></g></g></g><g id="Group_11061" data-name="Group 11061"><path id="Path_12365" data-name="Path 12365" class="cls-13" d="M384.5,412.085c-.386,5.591.386,17.543-.129,22.619-.707,7.518-1.157,68.951-1.157,68.951l-1.157,1.8c-2.378,2.763-6.233,2.635-9.253.707,0,0-1.992-1.863-1.992-3.277-.257-3.534-8.1-61.754-8.1-61.561,0,0-.386-3.149-2.442-3.084-1.928.193-2.378,6.362-2.378,6.362l-7.39,76.855s-.964,1.735-4.5,2.442c-3.534.643-6.1.386-7.968-.835,0,0-1.992-.835-1.992-2.378-.064-1.864-1.349-51.472-1.028-72.742.064-5.719-2.313-30.459-1.349-33.672,2.506-8.8,10.153-3.92,10.153-3.92l37.4-18.25C382.317,395.57,385.208,404.823,384.5,412.085Z" transform="translate(-333.442 -392.1)"></path></g></g><g id="Group_11064" data-name="Group 11064" transform="translate(70.236 6.141)"><g id="Group_11063" data-name="Group 11063"><path id="Path_12366" data-name="Path 12366" class="cls-14" d="M411.206,286.883s21.913-9.96,28.6-19.664c7.518-10.153,10.346-25.961,9.7-35.022-1.607-5.269-7.261,0-7.261,0s-1.542,16.836-11.053,28.146c-5.719,6.876-14.715,8.418-22.491,10.089Z" transform="translate(-408.7 -229.856)"></path></g></g><path id="Path_12367" data-name="Path 12367" class="cls-10" d="M315.531,302.523c3.984-6.362,23.9-14.523,23.9-14.523l.45,4.691c1.028,1.606,3.92,3.149,8.739,3.277,6.49.128,4.948-7.133,4.948-7.133,1.607-1.028,8.547-.064,14.394,1.092h0c7.2,1.478,16.386-1.157,16.579-1.221.129-.064.193,0,.643.128,1.478.193,4.434,2.506,5.077,3.663a10.267,10.267,0,0,1,1.864,7.968c-1.092.707-2.185,1.414-3.277,1.992h0c-.514.321-1.092.578-1.607.9-3.663,2.121-12.338,7.84-13.623,14.33a19.865,19.865,0,0,0,0,6.169c2.121,14.2,6.3,45.753,2.635,55.135-2.506,6.49-17.222,12.209-29.624,11.824-11.117-.386-20.435-4.562-20.242-6.619,0,0,0-44.725-2.827-44.725-1.928,0-5.141,1.928-6.876-4.048h0C316.688,335.359,308.977,310.812,315.531,302.523Z" transform="translate(-304.221 -244.496)"></path><g id="Group_11069" data-name="Group 11069" transform="translate(12.466 79.254)"><g id="Group_11066" data-name="Group 11066" transform="translate(0 0.128)"><g id="Group_11065" data-name="Group 11065"><path id="Path_12368" data-name="Path 12368" class="cls-14" d="M318.8,355.314c2.827,9.96,13.687,17.35,17.543,17.286,7.84,1.028,39.648-14.137,44.725-22.491,5.848-6.233-1.8-7.2-5.269-5.591a31.187,31.187,0,0,0-8.161,6.233c-8.932,3.92-22.491,7.261-25.768,9-7.2,1.028-9.253-5.205-10.539-7.968A24.756,24.756,0,0,1,318.8,355.314Z" transform="translate(-318.8 -343.832)"></path></g></g><g id="Group_11068" data-name="Group 11068" transform="translate(50.187)"><g id="Group_11067" data-name="Group 11067"><path id="Path_12369" data-name="Path 12369" class="cls-14" d="M401.784,345.154s-.321-2.57-1.285-1.028c-1.028,1.542-3.6,5.205-3.6,5.205s.064,4.305,2.635,1.35A7.986,7.986,0,0,0,401.784,345.154Z" transform="translate(-396.9 -343.633)"></path></g></g></g><path id="Path_12370" data-name="Path 12370" class="cls-14" d="M346.7,256.235c0,1.092.835,2.378,1.671,3.791.064.064.064.128.129.193.321.514.707,1.093.964,1.607a7.022,7.022,0,0,1,.514.964,14.72,14.72,0,0,1,1.349,4.113v.193c0,.321.064.707.064,1.028h0c-.129.964-.321,1.863-.386,2.7a15.243,15.243,0,0,0,.193,4.305c.45,3.6,7.84,9.189,14.973,7,4.691-2.635,3.277-8.032,2.57-10.282v-.064a5.109,5.109,0,0,0-.514-.771l-.064-.064h0c-.064.064-.578.321-1.349-1.349-.064-.064-.064-.193-.129-.257a1.839,1.839,0,0,1,.964-2.635c.321-.129.514-.257.578-.257.386-.129.707-.257,1.092-.386,6.876-2.827,9.96-10.924,9.318-16.129a18.509,18.509,0,0,0-.321-2.121c-1.157-4.434-5.012-6.876-7.583-8.033h-.193C349.912,225.647,346.635,251.672,346.7,256.235Z" transform="translate(-316.305 -225.775)"></path><g id="Group_11071" data-name="Group 11071" transform="translate(28.014 3.75)"><g id="Group_11070" data-name="Group 11070"><path id="Path_12371" data-name="Path 12371" class="cls-15" d="M347.3,255.737c1.285.129,1.735-.707,1.928-1.607a3.072,3.072,0,0,1,0-1.863h0c-.129-1.221-.578-7.775,2.313-7.775a2.549,2.549,0,0,1,1.285.257c.514-2.121,2.056-4.819,7.583-2.956,5.976,1.992,9.768,1.992,16.386,1.414a4.173,4.173,0,0,0,1.414-.321c.771-2.185-.321-5.205-.45-5.462h0a12.865,12.865,0,0,0-2.056-3.534c-16.643-16.194-29.559-3.406-32.066,5.719-.193.9-.257,1.735-.514,3.341C342.291,249.246,345.633,255.415,347.3,255.737Z" transform="translate(-342.995 -226.136)"></path></g></g><path id="Path_12372" data-name="Path 12372" class="cls-15" d="M347.51,262.086c1.285.129,1.735-.707,1.928-1.606a6.253,6.253,0,0,0,0-1.671v-.193h0c-.129-1.221-.578-7.775,2.313-7.775a2.548,2.548,0,0,1,1.285.257c1.992.771,2.249,3.213,2.378,4.691.193,1.735,1.864.707,1.864.707a11.8,11.8,0,0,1,.964-4.627c.964-1.863,3.984-2.378,8.354-.964,4.37,1.349,9.7,1.414,11.31-.707a5.314,5.314,0,0,0,.45-.835c.771-2.185-.321-5.205-.45-5.462h0l-34.058,4.755c-.064.257-.064.514-.128.771C342.884,255.6,345.839,261.764,347.51,262.086Z" transform="translate(-315.188 -228.734)"></path><path id="Path_12373" data-name="Path 12373" class="cls-16" d="M351.1,276.4a7.022,7.022,0,0,1,.514.964,14.723,14.723,0,0,1,1.349,4.113h0v.193a4.863,4.863,0,0,1,.064.964h0v.064h0a3.517,3.517,0,0,0,2.313,3.791h0c.257.064.45.129.707.193a6.135,6.135,0,0,1,2.056.964c1.221,1.157,5.462,4.305,9.7,1.028,1.092-.964,1.092-2.121,1.992-3.149l-.064-.064h0a1.7,1.7,0,0,0-.386-.321h0a2.509,2.509,0,0,1-.964-1.028c-.064-.064-.064-.193-.128-.257a1.839,1.839,0,0,1,.964-2.635c-.643.129-5.783,1.221-9.189.257h-.064c-.129-.064-5.526-1.607-7.775-3.984-.064-.064-.129-.064-.129-.129A3.441,3.441,0,0,1,351.1,276.4Z" transform="translate(-317.878 -240.35)"></path><path id="Path_12374" data-name="Path 12374" class="cls-14" d="M458.811,225.569c.45-.129.707.321.835,1.028,2.056-8.868,7.647-7.326,8.1-1.8q.1.868.193,2.121H468v.835a24.3,24.3,0,0,1-.129,2.892h0a22.019,22.019,0,0,1-.707,4.113c-.257.835-.643.835-1.157.386-2.249.45-6.811-1.607-6.811-1.607a4.075,4.075,0,0,1-.9-2.378l-.064.064C458.3,230.324,457.654,225.955,458.811,225.569Z" transform="translate(-356.124 -220.299)"></path></g><g id="Group_11090" data-name="Group 11090" transform="translate(747.364 199.114)"><g id="Group_11085" data-name="Group 11085" transform="translate(7.005)"><g id="Group_11073" data-name="Group 11073" class="cls-17" transform="translate(0 210.167)"><path id="Path_12375" data-name="Path 12375" class="cls-18" d="M1258.677,645.309c19.407,11.181,19.407,29.367,0,40.548s-50.829,11.181-70.172,0c-19.406-11.181-19.406-29.367,0-40.548C1207.847,634.064,1239.27,634.064,1258.677,645.309Z" transform="translate(-1173.95 -636.875)"></path></g><g id="Group_11075" data-name="Group 11075" transform="translate(19.763 238.843)"><g id="Group_11074" data-name="Group 11074"><path id="Path_12376" data-name="Path 12376" class="cls-19" d="M1234.326,684.456s1.221,7.518-1.8,12.595c-4.5,4.627-15.165.9-21.977-1.928-10.41-4.241-4.691-8.225.129-7.518,11.824.707,10.024-6.1,10.024-6.1Z" transform="translate(-1204.705 -681.5)"></path></g></g><g id="Group_11077" data-name="Group 11077" transform="translate(55.91 219.051)"><g id="Group_11076" data-name="Group 11076"><path id="Path_12377" data-name="Path 12377" class="cls-19" d="M1287.781,653.4s.45,7.326-1.8,11.567c-3.149,3.984-13.559.643-19.728-1.928-9.446-3.791-4.241-7.454.128-6.812,10.667.643,9.125-5.526,9.125-5.526Z" transform="translate(-1260.956 -650.7)"></path></g></g><g id="Group_11079" data-name="Group 11079" transform="translate(48.2 32.826)"><g id="Group_11078" data-name="Group 11078"><path id="Path_12378" data-name="Path 12378" class="cls-20" d="M1249.114,364.948s2.185,2.763,0,4.434,19.406,2.378,19.406,2.378l1.606-2.956s-3.148-1.864-1.542-4.113-12.659-3.791-12.659-3.791Z" transform="translate(-1248.958 -360.9)"></path></g></g><g id="Group_11081" data-name="Group 11081" transform="translate(39.742 1.403)"><g id="Group_11080" data-name="Group 11080"><path id="Path_12379" data-name="Path 12379" class="cls-20" d="M1269.728,324.274a10.763,10.763,0,0,1-2.571-1.607h-.064c-.321-.193-.643-.45-.964-.643-.642-.45-1.349-.835-1.992-1.285a20.882,20.882,0,0,1-4.755-4.113,9.582,9.582,0,0,1-2.313-4.627c-6.683.386-14.137,2.892-19.278,10.474-5.526,9.189,1.671,23.069,6.554,25l1.735.771s7.261,1.221,11.053-.257c2.506,0,8.225-9.832,13.109-17.543-.257-1.349-.385-2.763-.514-4.113A10.932,10.932,0,0,0,1269.728,324.274Z" transform="translate(-1235.796 -312)"></path></g></g><g id="Group_11083" data-name="Group 11083" transform="translate(31.242 117.263)"><g id="Group_11082" data-name="Group 11082"><path id="Path_12380" data-name="Path 12380" class="cls-21" d="M1276.245,509.779c-.386,5.59-.964,14.908-1.478,19.92-.707,7.518-.835,68.951-.835,68.951l-1.542,1.8c-2.442,2.763-6.362,2.635-9.446.707,0,0-2.378-2.056-2.313-3.47,0-1.478-7.968-61.368-7.968-61.368a2.638,2.638,0,0,0-2.442-3.085c-3.342.9-3.727,7.647-3.727,7.647l-5.526,79.81s-1.735,2.57-7.968,1.992c-6.3-.578-7.2-2.956-7.2-2.956s-3.534-79.168-3.213-100.5c.321-21.27,10.86-14.009,10.86-14.009l43.568-12.916C1278.109,495.9,1277.017,502.517,1276.245,509.779Z" transform="translate(-1222.568 -492.3)"></path></g></g><g id="Group_11084" data-name="Group 11084" transform="translate(29.142 38.665)"><path id="Path_12381" data-name="Path 12381" class="cls-8" d="M1278.419,434.9c-.835,10.217-1.285,15.23-2.827,25.254-2.185,18.314-46.974,26.218-53.978,9.9-3.92-19.663-1.671-69.143-1.671-69.143s-.45-.514.964-7.39c1.349-7.583,8.675-14.651,17.415-20.563,0,0,9.125,3.084,16.964-.964a3.8,3.8,0,0,0,2.185-1.992c6.169-.257,17.671,5.2,19.664,22.362.257,1.542.771,3.791,1.156,6.426C1279.319,405.6,1278.741,431.427,1278.419,434.9Z" transform="translate(-1219.301 -369.987)"></path></g><path id="Path_12382" data-name="Path 12382" class="cls-22" d="M1236.8,319.895v.193a1.672,1.672,0,0,0,1.863,1.478h.128a1.78,1.78,0,0,1,.836.064,4.834,4.834,0,0,1,1.414.643s3.278,2.249,2.25,7.133c-1.093,3.92.835,5.205,1.735,4.113s3.856-2.635,5.012.128c.771,1.8-1.093,4.305-2.313,6.619a.063.063,0,0,1-.064.064c-.321.964-1.928,7.069,10.924,6.94,10.282.514,14.009-8.1,15.358-13.623a22.75,22.75,0,0,0,.257-9.318c-.964-5.205-3.6-9.125-9.51-12.4-5.848-2.892-13.366-1.992-13.43-1.928-12.274,1.671-14.33,9.125-14.33,9.125A1.632,1.632,0,0,0,1236.8,319.895Z" transform="translate(-1196.413 -309.817)"></path></g><g id="Group_11089" data-name="Group 11089" transform="translate(0 52.206)"><path id="Path_12383" data-name="Path 12383" class="cls-23" d="M1218.59,414.6c-.578,3.984-3.663,11.631,1.414,12.531a31.824,31.824,0,0,0,12.531,1.157c1.092-.193,2.956-1.092,3.213-2.121l1.992-12.209s2.827-10.6,1.157-16.9c0,0-1.349-7.133-8.676-5.848C1225.016,392.692,1221.1,401.3,1218.59,414.6Z" transform="translate(-1182.38 -391.059)"></path><g id="Group_11088" data-name="Group 11088" transform="translate(0 8.573)"><g id="Group_11087" data-name="Group 11087" transform="translate(6.515)"><g id="Group_11086" data-name="Group 11086"><path id="Path_12384" data-name="Path 12384" class="cls-20" d="M1220.17,408.448s-.257,20.37-10.089,29.945c-8.1,11.181-23.776,19.342-33.415,21.655-6.041.064-2.378-7.583-2.378-7.583s17.029-7.2,25.768-20.82c5.269-8.225,6.876-18.571,6.04-27.246Z" transform="translate(-1173.188 -404.4)"></path></g></g><path id="Path_12385" data-name="Path 12385" class="cls-20" d="M1166.873,477.562c0,.514.578.643,1.349.514-8.611,5.077-5.141,10.41.771,9.061a21.446,21.446,0,0,0,2.249-.514v.064s.321-.129.9-.321a21.661,21.661,0,0,0,2.956-1.092h0a29.87,29.87,0,0,0,4.048-2.056c.836-.514.643-.964,0-1.349-.257-2.506-3.92-6.619-3.92-6.619a4.088,4.088,0,0,0-2.763-.129l.064-.064C1171.629,475.506,1166.873,476.213,1166.873,477.562Z" transform="translate(-1163.05 -429.624)"></path></g><path id="Path_12386" data-name="Path 12386" class="cls-8" d="M1214.09,414.6c-.578,3.984-3.663,11.631,1.414,12.531a31.825,31.825,0,0,0,12.531,1.157c1.092-.193,2.956-1.092,3.213-2.121l1.992-12.209s2.827-10.6,1.157-16.9c0,0-1.35-7.133-8.675-5.848C1220.516,392.692,1216.6,401.3,1214.09,414.6Z" transform="translate(-1180.772 -391.059)"></path></g></g><g id="Group_11115" data-name="Group 11115" transform="translate(514.069 388.878)"><g id="Group_11102" data-name="Group 11102" transform="translate(59.89 72.855)"><g id="Group_11092" data-name="Group 11092" transform="translate(0 0.064)"><g id="Group_11091" data-name="Group 11091"><path id="Path_12387" data-name="Path 12387" class="cls-24" d="M932.334,732.352,918.2,718.729l-6.1-.129L893.2,737.043l15.808,14.973Z" transform="translate(-893.2 -718.6)"></path></g></g><g id="Group_11094" data-name="Group 11094" transform="translate(18.892)"><g id="Group_11093" data-name="Group 11093"><path id="Path_12388" data-name="Path 12388" class="cls-25" d="M928.7,718.693l-6.1-.193,3.213,3.663Z" transform="translate(-922.6 -718.5)"></path></g></g><g id="Group_11098" data-name="Group 11098" transform="translate(15.12 8.064)"><g id="Group_11095" data-name="Group 11095" class="cls-26" transform="translate(4.994 0)"><rect id="Rectangle_1623" data-name="Rectangle 1623" class="cls-25" width="1.606" height="10.217" transform="translate(0 1.151) rotate(-45.75)"></rect></g><g id="Group_11096" data-name="Group 11096" class="cls-26" transform="translate(2.555 2.397)"><rect id="Rectangle_1624" data-name="Rectangle 1624" class="cls-25" width="1.606" height="10.217" transform="translate(0 1.151) rotate(-45.75)"></rect></g><g id="Group_11097" data-name="Group 11097" class="cls-26" transform="translate(0 4.971)"><rect id="Rectangle_1625" data-name="Rectangle 1625" class="cls-25" width="1.606" height="10.217" transform="translate(0 1.151) rotate(-45.75)"></rect></g></g><g id="Group_11101" data-name="Group 11101" transform="translate(10.17 15.392)"><g id="Group_11099" data-name="Group 11099" class="cls-26" transform="translate(2.556 0)"><rect id="Rectangle_1626" data-name="Rectangle 1626" class="cls-25" width="1.606" height="10.217" transform="translate(0 1.151) rotate(-45.75)"></rect></g><g id="Group_11100" data-name="Group 11100" class="cls-26" transform="translate(0 2.568)"><rect id="Rectangle_1627" data-name="Rectangle 1627" class="cls-25" width="1.606" height="10.217" transform="translate(0 1.151) rotate(-45.75)"></rect></g></g></g><g id="Group_11114" data-name="Group 11114"><g id="Group_11111" data-name="Group 11111" transform="translate(0 11.211)"><ellipse id="Ellipse_206" data-name="Ellipse 206" class="cls-11" cx="41.576" cy="23.969" rx="41.576" ry="23.969" transform="translate(0 201.923)"></ellipse><g id="Group_11104" data-name="Group 11104" transform="translate(46.357 223.78)"><g id="Group_11103" data-name="Group 11103"><path id="Path_12389" data-name="Path 12389" class="cls-27" d="M872.179,973.761s-.45,7.069,1.735,11.181c3.084,3.856,13.173.579,19.085-1.864,9.125-3.663,4.113-7.2-.129-6.554-10.346.578-10.024-5.077-10.024-5.077s.45-1.285-5.912-.193C872.115,972.026,872.179,973.761,872.179,973.761Z" transform="translate(-872.14 -970.815)"></path></g></g><g id="Group_11106" data-name="Group 11106" transform="translate(20.849 208.798)"><g id="Group_11105" data-name="Group 11105"><path id="Path_12390" data-name="Path 12390" class="cls-27" d="M832.737,948.978s-1.028,7,.771,11.31c2.7,4.113,13.045,1.735,19.214-.257,9.382-2.892,4.691-6.811.45-6.554-10.346-.257-10.41-5.976-10.41-5.976Z" transform="translate(-832.445 -947.5)"></path></g></g><path id="Path_12391" data-name="Path 12391" class="cls-14" d="M830.6,818.839c1.607-3.342,5.462-6.811,6.3-10.346.707-2.121,1.414-4.241,2.056-6.362,5.4-3.727,6.747-11.438,4.048-17.222l27.31-10.41-4.241,21.334s4.627,27.375,3.727,54.621c-.707,21.72-1.414,43.375-1.928,50.7,0,0-.064,4.434-5.205,4.755a4.382,4.382,0,0,1-5.141-2.892c-1.028-9.446-2.57-33.094-3.342-51.793a180.609,180.609,0,0,0-2.763-25.575s2.763-10.217.45-10.41-3.663.385-4.306,7.583c-.514,5.462-1.478,14.78-1.285,22.041.064,2.506-2.7,30.78-3.92,40.484a6.713,6.713,0,0,0-.064.707c-.45,3.6-3.791,4.113-6.812,3.92-2.827-.193-3.02-1.285-3.02-1.285-.193-5.526-.707-30.2-.45-50.123C831.628,828.607,830.6,821.281,830.6,818.839Z" transform="translate(-810.936 -676.871)"></path><path id="Path_12392" data-name="Path 12392" class="cls-28" d="M827.631,718.718a8.741,8.741,0,0,0-.771-.771,6.883,6.883,0,0,0-1.414-.964c-1.221-7.2-3.02-20.949-2.249-29.5,1.092-11.888,9.767-13.687,9.767-13.687l5.205,23.134L839,719.874C835.342,718.846,831.293,717.754,827.631,718.718Z" transform="translate(-808.224 -640.881)"></path><path id="Path_12393" data-name="Path 12393" class="cls-14" d="M835.017,729.9c1.478.128,2.956.257,4.37.385l.771,21.013-11.5,13.623s-1.349-23.519-1.671-24.1A131.965,131.965,0,0,1,824.8,727.2a14.79,14.79,0,0,0,9.767,2.892C834.825,730.092,834.953,730.027,835.017,729.9Z" transform="translate(-808.864 -659.966)"></path><g id="Group_11107" data-name="Group 11107" transform="translate(29.945)"><path id="Path_12394" data-name="Path 12394" class="cls-14" d="M846.6,660.7l.321.45.193.257s7.518.321,13.623.257c3.6,0,6.683-.128,7.326-.578-.129-.193-.321-.386-.45-.578a7.687,7.687,0,0,1-2.892-1.478,9.854,9.854,0,0,1-.835-.771h0a4.294,4.294,0,0,1-1.221-3.534,3.129,3.129,0,0,1,.321-2.056,2.741,2.741,0,0,1,.707-.771c.128-.064.257-.193.386-.257,8.932-1.671,12.916-11.31,12.145-17.35-.45-8.739-10.474-11.246-10.474-11.246-20.692-3.791-18.764,16.386-17.671,26.475.064.45.064.835.128,1.285a4.242,4.242,0,0,1,.064.9v.257a4.245,4.245,0,0,1,.064.9,5.531,5.531,0,0,1-.064,1.028,12.8,12.8,0,0,1-.321,2.185,16.505,16.505,0,0,1-1.285,3.791A1.141,1.141,0,0,1,846.6,660.7Z" transform="translate(-846.6 -622.571)"></path></g><path id="Path_12395" data-name="Path 12395" class="cls-14" d="M857.9,683.3Z" transform="translate(-820.694 -644.276)"></path><path id="Path_12396" data-name="Path 12396" class="cls-28" d="M818.621,785.145c2.7-12.852,5.655-31.295,8.161-44.082,2.506-12.852,0-30.009,0-30.009-.771-7.2-4.048-19.214.129-23.776,1.349-1.992,4.755-4.819,9.446-7.133-.707-4.113-.321-9.318,6.1-8.675,7.326.643,13.816,4.37,17.414,6.812a21.185,21.185,0,0,1,2.763,2.056l.129.128h0a26.666,26.666,0,0,1,2.57,2.7,20.381,20.381,0,0,1,1.864,2.57l-3.084-.257c-4.241-1.093-4.434,13.751-3.663,23.9.128,1.542.321,3.6.643,6.041,1.8,13.944,6.233,39.777,6.233,39.777l4.37,42.411a4.52,4.52,0,0,1-1.735,4.048c-6.94,4.948-29.752,10.6-50.637-2.249a4.066,4.066,0,0,1-1.928-3.47C817.529,792.342,818.557,786.688,818.621,785.145Z" transform="translate(-806.219 -640.028)"></path><g id="Group_11110" data-name="Group 11110" transform="translate(52.564 67.748)"><g id="Group_11109" data-name="Group 11109"><g id="Group_11108" data-name="Group 11108"><path id="Path_12397" data-name="Path 12397" class="cls-14" d="M916.693,739.824c-8.289,7.9-13.43,6.233-17.8,7.2-2.121-.514-2.828-3.727-3.149-5.976-.064-2.056-.129-4.177-.257-6.362s-.193-4.5-.385-6.683c-1.928,1.414-3.92,2.827-5.912,4.113-3.084,2.056-4.048,2.185-7.39,3.856,1.028,9.7,2.571,13.109,5.205,17.157,9.639,13.366,30.266-3.213,36.564-8.8a7.829,7.829,0,0,0,2.7-5.783C926.268,735.84,924.983,734.362,916.693,739.824Z" transform="translate(-881.8 -728)"></path></g></g><path id="Path_12398" data-name="Path 12398" class="cls-14" d="M937.677,742.586s.45-3.984-1.221-2.313c-1.671,1.607-1.671,4.37-2.956,5.077-1.349.707.257,3.47.257,3.47Z" transform="translate(-900.085 -732.24)"></path></g><path id="Path_12399" data-name="Path 12399" class="cls-28" d="M882.541,691.263a10.965,10.965,0,0,1,3.92-1.863s5.848,4.5,6.49,15.615h0c.321,2.506,1.221,13.366,1.028,15.422-3.277,1.8-6.169,3.085-14.587,1.735C879.2,719.345,870.846,698.461,882.541,691.263Z" transform="translate(-827.278 -646.456)"></path></g><g id="Group_11113" data-name="Group 11113" transform="translate(18.196)"><g id="Group_11112" data-name="Group 11112" transform="translate(11.255 10.346)"><path id="Path_12400" data-name="Path 12400" class="cls-14" d="M847.675,653.724l.193.964a.387.387,0,0,0,.064.257,5,5,0,0,1,.129,1.028c0,.386.064.771.064,1.157,0,.835-.064,1.607-.129,2.442a21.641,21.641,0,0,1-.771,3.406,8.281,8.281,0,0,1,1.607-1.285c4.948-2.7,10.025-3.342,15.294-3.342a3.845,3.845,0,0,1-.193-1.671,3.531,3.531,0,0,1,.193-2.313,3.128,3.128,0,0,1,.707-.9,2.724,2.724,0,0,1,.45-.321c9.7-2.635,13.3-13.687,11.888-20.242-1.285-9.575-12.531-11.5-12.531-11.5-23.2-2.378-19.278,19.856-17.157,30.845A5.159,5.159,0,0,0,847.675,653.724Z" transform="translate(-845.832 -621.225)"></path></g><path id="Path_12401" data-name="Path 12401" class="cls-29" d="M870.46,620.852h0c.129,1.028-1.221.835-1.221.835s-8.161-1.8-10.089,7.454a35.348,35.348,0,0,0,3.984,25.061c-5.076-.835-8.354,3.084-15.294,5.012-7.647,2.121-14.78-1.735-17.414-2.7s-2.056-5.4-2.056-5.4h0a102.512,102.512,0,0,0,1.349-12.916c.064-.964.129-1.864.193-2.763v-.129c0-.257.064-.514.064-.771.064-.578.129-1.221.193-1.8,0-.193.064-.45.064-.643,1.092-11.181,3.47-19.535,9.96-24.033,6.49-4.048,13.045-3.6,20.563-.578a15.661,15.661,0,0,1,9.575,12.723.237.237,0,0,1,.064.193.236.236,0,0,0,.064.193Z" transform="translate(-828.316 -605.125)"></path></g></g></g></g></g></svg> 